<svg xmlns="http://www.w3.org/2000/svg" width="31" height="32"><path fill="#ff6b09" d="M6.947 14.542c0 .23-.344.23-.344 0 0-4.888 3.907-8.852 8.725-8.852 4.82 0 8.725 3.964 8.725 8.852 0 .23-.342.23-.342 0 0-3.304-5.351-3.306-5.351 0 0 .23-.352.23-.352 0 0-3.295-5.36-3.295-5.36 0 0 .23-.352.23-.352 0 0-3.289-5.349-3.312-5.349 0zm5.38-1.283c.093-1.902.387-3.607.816-4.909.342-1.034.774-1.82 1.265-2.261-3.679.407-6.657 3.237-7.322 6.906 1.267-1.854 4.192-1.705 5.242.263zm5.654-.086c-.095-1.828-.381-3.465-.793-4.712-1.063-3.228-2.657-3.228-3.72 0-.412 1.248-.696 2.884-.793 4.712 1.143-1.971 4.163-1.971 5.306 0zm5.59-.177c-.663-3.669-3.642-6.499-7.322-6.906.492.441.923 1.227 1.265 2.261.428 1.302.723 3.007.816 4.909 1.057-1.979 3.99-2.096 5.242-.263zM14.183 18.592v-1.797c-.319.215-.571.548-.571.953 0 .395.255.656.571.844zm.344.558c-.612-.284-1.256-.617-1.256-1.402 0-.811.608-1.216 1.256-1.52v2.922zM16.473 21.304v1.818c.323-.217.577-.552.577-.957 0-.399-.26-.669-.577-.861zm-.342-.56c.614.288 1.263.631 1.263 1.421 0 .813-.612 1.218-1.263 1.519v-2.94z"/><path fill="#ff6b09" d="M16.473 14.749c1.409.33 2.857 1.4 2.857 2.999 0 1.369-2.28 1.319-2.28 0 0-.408-.253-.742-.577-.957v2.558c1.304.433 2.861 1.208 2.861 2.817 0 1.601-1.448 2.668-2.861 2.997-.006 1.523-2.286 1.521-2.29-.002-.803-.188-1.502-.568-2.006-1.072-.529-.531-.842-1.197-.842-1.922 0-1.348 2.278-1.348 2.278 0 0 .403.251.736.571.951v-2.556c-1.293-.424-2.859-1.222-2.859-2.817 0-1.601 1.448-2.668 2.859-2.997.006-1.523 2.286-1.521 2.29.002zm-1.946.004v.278c-1.341.27-2.861 1.141-2.861 2.712 0 1.511 1.668 2.188 2.861 2.562v3.377c-.645-.299-1.256-.702-1.256-1.517 0-.89-1.594-.89-1.594 0 0 .629.276 1.21.742 1.674.591.593 1.308.876 2.109 1.037v.28c0 1.072 1.605 1.072 1.605 0v-.278c1.345-.272 2.859-1.143 2.859-2.712 0-1.525-1.664-2.182-2.859-2.564v-3.375c.647.299 1.263.702 1.263 1.521 0 .867 1.592.903 1.592 0 0-1.569-1.512-2.443-2.855-2.714v-.28c0-1.072-1.605-1.072-1.605 0z"/><path fill="none" stroke="#ff6b09" stroke-width="1.016" d="M30.387 4.781V.537H.508v30.918h29.879v-4.244"/></svg>