<svg xmlns="http://www.w3.org/2000/svg" width="31" height="32"><path fill="#ff6b09" d="M20.406 8.558H13.29a.841.841 0 0 0-.84.84v2.946l-5.287 2.219c-.06.025-.101.082-.105.146s.027.127.083.16l.674.403v4.3a.776.776 0 0 0-.603.756v.414c0 .095.077.172.172.172h1.207a.172.172 0 0 0 .172-.172v-.414a.777.777 0 0 0-.604-.756v-4.094l.533.319c-.016.123-.002-.214-.008 2.002 0 .729 1.866 1.119 3.765 1.141v3.356a.84.84 0 0 0 .84.838h7.116a.84.84 0 0 0 .839-.839V9.397a.846.846 0 0 0-.839-.84zM8.42 20.328v.242h-.863v-.242a.432.432 0 1 1 .863 0zm11.986 2.462H13.29a.494.494 0 0 1-.496-.494v-1.163h8.105v1.164c0 .27-.225.494-.494.494zm.494-2.002h-8.105v-1.847c.927-.011 3.767-.215 3.767-1.142-.001-1.392.002-1.957-.004-2.005l1.546-.926a.171.171 0 0 0-.022-.306l-5.286-2.219v-1.438h8.105v9.883zm-8.278-4.132c-.955 0-2.794.123-3.592.645.005-1.595-.055-1.491.141-1.627.496-.365 1.915-.62 3.451-.62.67 0 3.595.184 3.595.803v1.444c-.806-.526-2.636-.645-3.595-.645zm.173-7.258c0-.273.222-.495.495-.495h7.116c.273 0 .494.225.494.495v1.163h-8.105V9.398zm-.173 3.246 5.012 2.104-1.242.743c-.66-.655-2.844-.782-3.77-.782-.927 0-3.111.127-3.77.782l-1.242-.743 5.012-2.104zM9.03 17.799c0-.279 1.234-.799 3.592-.799 2.36 0 3.595.52 3.595.799s-1.235.799-3.595.799c-2.359 0-3.592-.52-3.592-.799z"/><path fill="#ff6b09" d="M16.848 21.392a.57.57 0 1 0 0 1.139.57.57 0 0 0 0-1.139zm0 .794a.225.225 0 1 1 0-.45.225.225 0 0 1 0 .45zM17.505 9.56h-1.313v.344h1.313V9.56z"/><path fill="none" stroke="#ff6b09" stroke-width="1.016" d="M31.077 4.615V.307H.308v31.385h30.769v-4.308"/></svg>