<svg xmlns="http://www.w3.org/2000/svg" width="31" height="32"><path fill="#ff6b09" d="M7.046 26.16h17.006c.084-1.97-.055-5.238-1.247-6.793l-.043-.056-2.606-1.329c.057-.194.084-.371.096-.502a.931.931 0 0 0-.063-.437c-.43-1.045-1.339-1.594-1.84-1.829.152-.312.251-.647.298-.989a.844.844 0 0 0 .586-.613l.304-1.255a.845.845 0 0 0-.283-.862c.858-1.978-.579-3.843-.657-3.941-1.555-1.708-3.52-1.389-3.624-1.37-2.836.603-3.93 2.81-3.312 5.399a.86.86 0 0 0-.192.774l.306 1.256c.074.302.3.529.581.611a3.25 3.25 0 0 0 .732 1.65v.995c-4.069 2.116-1.491.766-4.752 2.442-.006.031-1.53 1.676-1.304 6.55l.014.298zm16.415-.626h-2.799V24.34l1.851-4.304c.927 1.563.962 4.548.948 5.498zm-3.82-8.107c-.108 1.26-.788.879-1.208 1.85-.33-.369-.43-.811-.341-1.285.16-.87-.362-1.128-.233-2.041l.02-.021v-.003c.011-.013.114-.137.144-.177 1.107.49 1.64 1.402 1.619 1.677zm-5.94-.99a3.12 3.12 0 0 0 3.539.048c.071.718.347.862.249 1.391a2.458 2.458 0 0 0-.034.29l-1.906 2.182-2.437-2.79.588-.312v-.809zm-.766-2.67v-3.335c.297-.557.701-.961 1.204-1.204 1.346.774 2.895 1.928 3.935 3.09-.001 1.48.004 1.484-.006 1.605l-.001.008c-.081 1.344-1.169 2.457-2.564 2.457-1.356 0-2.482-1.081-2.563-2.47-.004-.05-.005-.1-.005-.151zm-.38 4.092 2.994 3.428 2.01-2.301c.046.134.11.261.184.384l-2.194 2.787-3.272-4.156.278-.142zm6.131-4.595v-.966l.229-.266c.013.489.065-.088-.229 1.232zm-3.599-6.465c.122.008 1.756-.252 3.047 1.164.051.065 1.102 1.44.68 2.945-.145-.67-.396-1.528-.795-1.937l-.435.44c.393.404.651 1.636.75 2.274-1.803-1.917-4.13-3.13-4.162-3.15-.117.074-1.101.264-1.816 1.675l-.034.068v1.037l-.09.001c-.454-2.227.416-3.997 2.855-4.516zm-2.92 5.16.155.637v.669l-.257-1.057c-.038-.158.077-.217.102-.249zm-.451 6.328 3.833 4.869 2.594-3.294c.282.256.418.293 1.016.605l-.202-.695c-.051-.176.151-.459.274-.59.273-.151.501-.365.671-.63l2.116 1.079-1.969 4.578v1.325h-9v-1.325l-1.97-4.578 2.637-1.344zm-3.132 1.751 1.851 4.303v1.194H7.636c-.014-.95.021-3.933.947-5.497z"/><path fill="none" stroke="#ff6b09" stroke-width="1.016" d="M30.387 4.771V.523H.508v30.951h29.879v-4.248"/></svg>