<svg xmlns="http://www.w3.org/2000/svg" width="31" height="32"><path fill="#ff6b09" d="M24.717 5.091H14.47c-.667 0-1.21.55-1.21 1.227v4.303l-7.613 3.242c-.086.037-.145.119-.151.214s.04.185.12.234l.971.589v6.282a1.131 1.131 0 0 0-.869 1.105v.605a.25.25 0 0 0 .248.252h1.739a.25.25 0 0 0 .248-.252v-.605c0-.539-.373-.989-.87-1.104v-5.981l.768.466c-.024.18-.003-.313-.011 2.925 0 1.064 2.687 1.634 5.421 1.667v4.902a1.224 1.224 0 0 0 1.209 1.225h10.247a1.22 1.22 0 0 0 1.209-1.226V6.318c0-.668-.544-1.227-1.208-1.227zM7.456 22.287v.354H6.213v-.354c0-.349.278-.632.62-.632.343 0 .623.284.623.632zm17.261 3.596H14.47a.712.712 0 0 1-.592-.318.724.724 0 0 1-.122-.404v-1.699h11.672v1.7a.722.722 0 0 1-.711.721zm.711-2.925H13.756V20.26c1.335-.015 5.424-.314 5.424-1.669-.001-2.034.004-2.859-.006-2.928L21.4 14.31c.08-.049.126-.139.12-.234s-.065-.177-.151-.214l-7.613-3.242V8.519h11.672v14.438zm-11.92-6.036c-1.375 0-4.023.18-5.173.942.007-2.331-.08-2.179.203-2.377.715-.534 2.758-.906 4.97-.906.965 0 5.176.269 5.176 1.174v2.11c-1.161-.769-3.795-.943-5.176-.943zm.248-10.604c0-.399.32-.723.713-.723h10.247c.393 0 .712.329.712.723v1.7H13.756V6.319zm-.248 4.743 7.217 3.073-1.788 1.086c-.951-.957-4.096-1.142-5.429-1.142-1.335 0-4.48.186-5.429 1.142L6.29 14.134l7.218-3.073zm-5.173 7.531c0-.407 1.777-1.167 5.173-1.167 3.399 0 5.176.76 5.176 1.167s-1.778 1.167-5.176 1.167c-3.396 0-5.173-.76-5.173-1.167z"/><path fill="#ff6b09" d="M19.593 23.841c-.452 0-.82.373-.82.832s.368.832.82.832c.452 0 .82-.373.82-.832s-.368-.832-.82-.832zm0 1.161c-.179 0-.324-.148-.324-.329s.145-.329.324-.329c.179 0 .324.147.324.329s-.145.329-.324.329zM20.539 6.555h-1.891v.503h1.891v-.503z"/><path fill="none" stroke="#ff6b09" stroke-width="1.016" d="M30.387 4.781V.537H.508v30.918h29.879v-4.244"/></svg>